<svg width="189" height="189" xmlns="http://www.w3.org/2000/svg" xmlns:xlink="http://www.w3.org/1999/xlink" xml:space="preserve" overflow="hidden"><defs><clipPath id="clip0"><rect x="551" y="192" width="189" height="189"/></clipPath></defs><g clip-path="url(#clip0)" transform="translate(-551 -192)"><path d="M691.982 295.009 699.946 314.222 663.13 314.222C662.985 323.958 654.974 331.732 645.239 331.587 635.708 331.444 628.016 323.753 627.874 314.222L591.025 314.222 607.395 274.688 635.28 274.688C633.254 270.978 631.761 267.001 630.845 262.875L599.5 262.875 578.562 313.431 578.562 357.375 712.438 357.375 712.438 313.517 702.332 289.13C699.156 291.537 695.676 293.514 691.982 295.009Z" fill="#FFFFFF"/><path d="M675.031 215.625C654.372 215.625 637.625 232.372 637.625 253.031 637.625 273.69 654.372 290.438 675.031 290.438 695.69 290.438 712.438 273.69 712.438 253.031 712.446 232.381 695.713 215.634 675.063 215.625 675.052 215.625 675.042 215.625 675.031 215.625ZM684.088 254.817C678.638 260.257 673.155 265.746 667.639 271.284 662.95 266.574 658.252 261.875 653.544 257.187L658.254 252.478 667.639 261.865C672.194 257.242 676.722 252.653 681.223 248.098 685.724 243.54 688.218 241.095 692.884 236.582 693.016 236.45 693.156 236.32 693.309 236.189 693.457 236.063 693.589 235.92 693.703 235.763L698.479 240.473C692.947 245.989 689.545 249.377 684.088 254.817Z" fill="#FFFFFF"/></g></svg>