<svg width="189" height="189" xmlns="http://www.w3.org/2000/svg" xmlns:xlink="http://www.w3.org/1999/xlink" xml:space="preserve" overflow="hidden"><defs><clipPath id="clip0"><rect x="-177" y="-29" width="189" height="189"/></clipPath></defs><g clip-path="url(#clip0)" transform="translate(177 29)"><path d="M-31.7062 37.9611C-31.4661 37.7052-11.7589 16.8542 8.0625-4.34928L8.0625-10.1157C-12.6743 12.0898-34.3109 34.9844-34.5314 35.2167L-41.9438 42.6251-36.9392 47.6336C-55.3313 65.0196-69.9 69.5891-69.9 69.5891-72.5092 85.8045-78.9114 101.175-88.5854 114.447L-85.2051 117.829-105.483 120.946C-105.492 120.949-105.502 120.944-105.505 120.934-105.507 120.93-105.506 120.926-105.505 120.922-104.375 117.871-103.221 113.441-104.454 110.171-105.06 108.505-106.361 107.185-108.017 106.552-112.531 104.781-119.414 109.854-124.785 114.896-124.792 114.903-124.803 114.903-124.81 114.896-124.815 114.891-124.816 114.885-124.814 114.878-124.243 112.655-124.343 110.312-125.102 108.145-125.94 106.193-127.673 104.768-129.75 104.324-134.134 103.219-140.173 108.031-146.713 115.233-146.718 115.241-146.729 115.244-146.737 115.239-146.746 115.235-146.749 115.224-146.744 115.215-141.338 103.814-137.062 90.1645-143.892 83.3369-148.813 78.415-157.913 78.2595-171.712 82.8604-172.745 83.204-173.304 84.3199-172.96 85.3529-172.617 86.3859-171.501 86.9446-170.468 86.6011-158.391 82.5769-150.386 82.4155-146.675 86.1266-138.395 94.4072-153.288 119.747-158.181 128.075-159.031 129.52-159.655 130.589-159.953 131.168-160.615 132.096-160.4 133.386-159.471 134.048-159.442 134.069-159.412 134.089-159.382 134.109-159.057 134.345-158.673 134.486-158.273 134.515-157.312 134.515-156.432 133.379-154.314 130.642-139.082 110.98-133.067 107.56-130.709 108.151-129.82 108.283-129.064 108.868-128.712 109.694-127.447 112.648-130.024 119.101-131.941 122.47-132.478 123.415-132.146 124.617-131.2 125.153-130.386 125.615-129.359 125.44-128.744 124.734-121.879 116.804-112.567 109.007-109.45 110.222-108.827 110.445-108.34 110.94-108.127 111.567-107.117 114.232-109.037 119.717-110.49 122.548-110.985 123.516-110.602 124.703-109.635 125.198-109.266 125.387-108.846 125.455-108.436 125.391L-82.2126 121.357C-82.0763 121.325-81.9442 121.278-81.8188 121.216L-77.3813 125.651C-64.1121 115.975-48.7448 109.571-32.5312 106.96-32.5312 106.96-28.0522 92.2986-10.678 73.8967L-5.52188 79.043-4.12997 77.6649C-4.02168 77.5586 1.85896 71.7587 8.07629 65.6949L8.07629 60.2001C2.74097 65.3937-2.92313 70.9613-5.49628 73.4951L-7.94344 71.0598-7.94344 71.0598-34.0884 44.8892-34.0983 44.899-36.3702 42.6251ZM-35.4469 103.467C-50.3135 106.207-64.4458 112.016-76.9422 120.523L-78.8224 118.642-53.3015 93.1216C-51.3187 93.9697-49.0196 93.5271-47.4937 92.0033L-47.4937 92.0033C-45.4296 89.9418-45.4275 86.5973-47.4891 84.5333-49.5506 82.4691-52.8951 82.4671-54.9592 84.5286-56.4857 86.0534-56.9314 88.3531-56.0853 90.3378L-81.6022 115.857-83.4529 114.006C-74.9443 101.501-69.1357 87.3602-66.3976 72.4851-61.3989 70.4534-48.9387 64.4507-34.1376 50.4351L-13.4658 71.107C-27.4852 85.91-33.4309 98.4313-35.4469 103.467Z" fill="#92D050"/></g></svg>