<svg width="650" height="650" xmlns="http://www.w3.org/2000/svg" xmlns:xlink="http://www.w3.org/1999/xlink" xml:space="preserve" overflow="hidden"><defs><clipPath id="clip0"><rect x="-934" y="2090" width="650" height="650"/></clipPath><clipPath id="clip1"><rect x="-831" y="2360" width="444" height="110"/></clipPath><clipPath id="clip2"><rect x="-831" y="2360" width="444" height="110"/></clipPath><clipPath id="clip3"><rect x="-884" y="1822" width="697" height="648"/></clipPath></defs><g clip-path="url(#clip0)" transform="translate(934 -2090)"><rect x="-934" y="2090" width="650" height="650" fill="#4472C4" fill-opacity="0"/><g clip-path="url(#clip1)"><g clip-path="url(#clip2)"><g clip-path="url(#clip3)"><path d="M566.494 485.971C553.595 480.824 539.909 477.927 526.03 477.406 512.152 477.927 498.466 480.824 485.566 485.971 476.975 489.523 467.866 491.664 458.591 492.31L458.591 492.31C449.316 491.668 440.205 489.527 431.615 485.971 418.715 480.824 405.029 477.927 391.151 477.406 377.272 477.927 363.586 480.824 350.687 485.971 342.095 489.523 332.986 491.664 323.711 492.31 314.436 491.664 305.327 489.523 296.735 485.971 283.836 480.824 270.15 477.927 256.271 477.406 242.393 477.927 228.707 480.824 215.807 485.971 207.215 489.523 198.106 491.664 188.831 492.31 179.556 491.664 170.447 489.523 161.855 485.971 148.956 480.824 135.27 477.927 121.392 477.406 107.514 477.934 93.829 480.83 80.9277 485.971 72.3339 489.517 63.2256 491.658 53.9518 492.31L53.9518 532.774C67.8296 532.25 81.5158 529.353 94.4157 524.21 103.006 520.641 112.114 518.478 121.392 517.803 130.67 518.471 139.78 520.634 148.368 524.21 161.267 529.357 174.953 532.254 188.831 532.774 202.71 532.254 216.396 529.357 229.295 524.21 237.883 520.634 246.993 518.471 256.271 517.803 265.546 518.449 274.655 520.59 283.247 524.142 296.142 529.315 309.829 532.235 323.711 532.774 337.589 532.254 351.276 529.357 364.175 524.21 372.763 520.634 381.872 518.471 391.151 517.803 400.429 518.471 409.539 520.634 418.127 524.21 431.026 529.357 444.712 532.254 458.591 532.774 472.469 532.254 486.155 529.357 499.054 524.21 507.642 520.634 516.752 518.471 526.03 517.803 535.305 518.449 544.414 520.59 553.006 524.142 565.901 529.315 579.588 532.235 593.47 532.774L593.47 492.31C584.195 491.664 575.086 489.523 566.494 485.971Z" fill="#EE00D7" transform="matrix(1.07514 0 0 1 -883.511 1822.58)"/><path d="M566.494 573.643C553.595 568.496 539.909 565.599 526.03 565.078 512.152 565.599 498.466 568.496 485.566 573.643 476.975 577.195 467.866 579.335 458.591 579.982L458.591 579.982C449.316 579.339 440.205 577.198 431.615 573.643 418.715 568.496 405.029 565.599 391.151 565.078 377.272 565.599 363.586 568.496 350.687 573.643 342.095 577.195 332.986 579.335 323.711 579.982 314.436 579.335 305.327 577.195 296.735 573.643 283.836 568.496 270.15 565.599 256.271 565.078 242.393 565.599 228.707 568.496 215.807 573.643 207.215 577.195 198.106 579.335 188.831 579.982 179.556 579.335 170.447 577.195 161.855 573.643 148.956 568.496 135.27 565.599 121.392 565.078 107.514 565.605 93.829 568.502 80.9277 573.643 72.3339 577.189 63.2256 579.329 53.9518 579.982L53.9518 620.446C67.8296 619.922 81.5158 617.025 94.4157 611.881 103.006 608.313 112.114 606.149 121.392 605.474 130.67 606.143 139.78 608.306 148.368 611.881 161.267 617.028 174.953 619.925 188.831 620.446 202.71 619.925 216.396 617.028 229.295 611.881 237.883 608.306 246.993 606.143 256.271 605.474 265.546 606.121 274.655 608.262 283.247 611.814 296.142 616.987 309.829 619.907 323.711 620.446 337.589 619.925 351.276 617.028 364.175 611.881 372.763 608.306 381.872 606.143 391.151 605.474 400.429 606.143 409.539 608.306 418.127 611.881 431.026 617.028 444.712 619.925 458.591 620.446 472.469 619.925 486.155 617.028 499.054 611.881 507.642 608.306 516.752 606.143 526.03 605.474 535.305 606.121 544.414 608.262 553.006 611.814 565.901 616.987 579.588 619.907 593.47 620.446L593.47 579.982C584.195 579.335 575.086 577.195 566.494 573.643Z" fill="#EE00D7" transform="matrix(1.07514 0 0 1 -883.511 1822.58)"/><path d="M310.223 47.2079 337.199 47.2079 337.199 121.392 310.223 121.392Z" fill="#EE00D7" transform="matrix(1.07514 0 0 1 -883.511 1822.58)"/><path d="M310.223 360.432 337.199 360.432 337.199 434.616 310.223 434.616Z" fill="#EE00D7" transform="matrix(1.07514 0 0 1 -883.511 1822.58)"/><path d="M423.198 239.411C423.198 294.357 378.656 338.898 323.711 338.898 268.766 338.898 224.224 294.357 224.224 239.411 224.224 184.466 268.766 139.924 323.711 139.924 378.656 139.924 423.198 184.466 423.198 239.411Z" fill="#EE00D7" transform="matrix(1.07514 0 0 1 -883.511 1822.58)"/><path d="M443.235 225.923 517.418 225.923 517.418 252.899 443.235 252.899Z" fill="#EE00D7" transform="matrix(1.07514 0 0 1 -883.511 1822.58)"/><path d="M130.004 225.923 204.187 225.923 204.187 252.899 130.004 252.899Z" fill="#EE00D7" transform="matrix(1.07514 0 0 1 -883.511 1822.58)"/><path d="M411.48 120.83 488.299 120.83 488.299 148.764 411.48 148.764Z" fill="#EE00D7" transform="matrix(0.734152 -0.682846 0.734152 0.682846 -845.662 2167.91)"/><path d="M182.125 350.185 258.944 350.185 258.944 378.119 182.125 378.119Z" fill="#EE00D7" transform="matrix(0.734152 -0.682846 0.734152 0.682846 -1083.79 2076.17)"/><path d="M437.019 324.639 464.953 324.639 464.953 401.458 437.019 401.458Z" fill="#EE00D7" transform="matrix(0.734152 -0.682846 0.734152 0.682846 -1012.9 2233.22)"/><path d="M207.671 95.2841 235.605 95.2841 235.605 172.104 207.671 172.104Z" fill="#EE00D7" transform="matrix(0.734152 -0.682846 0.734152 0.682846 -914.268 2011.73)"/></g></g></g></g></svg>