<svg width="189" height="189" xmlns="http://www.w3.org/2000/svg" xmlns:xlink="http://www.w3.org/1999/xlink" xml:space="preserve" overflow="hidden"><defs><clipPath id="clip0"><rect x="284" y="-7" width="189" height="189"/></clipPath></defs><g clip-path="url(#clip0)" transform="translate(-284 7)"><path d="M305.532 142.613C305.601 142.637 305.673 142.655 305.745 142.666L427.719 142.666 454.494 85.1631C456.405 81.1732 454.721 76.389 450.731 74.4773 449.931 74.0944 449.074 73.8465 448.194 73.7443L439.531 73.7443 439.531 56.0256C439.518 51.6817 436 48.1636 431.656 48.1506L373.145 48.1506C372.788 48.15 372.439 48.0447 372.141 47.8474L350.938 33.7649C349.642 32.9276 348.147 32.452 346.606 32.3868L309.594 32.3868C305.25 32.3998 301.732 35.918 301.719 40.2618L301.719 138.688C301.724 140.81 303.411 142.546 305.532 142.613ZM447.983 77.6779C450.203 78.0721 451.684 80.1916 451.29 82.412 451.229 82.7541 451.125 83.0872 450.98 83.403L450.954 83.4522 450.932 83.5015 425.22 138.717 425.203 138.729 309.791 138.729C309.78 138.729 309.771 138.72 309.771 138.709 309.771 138.706 309.772 138.704 309.773 138.701L334.065 79.6624C334.633 78.4656 335.832 77.6958 337.156 77.6779ZM305.656 40.2618C305.656 38.0871 307.419 36.3243 309.594 36.3243L346.606 36.3243C347.419 36.3918 348.2 36.6663 348.876 37.1217L369.962 51.1175C370.905 51.7438 372.012 52.0781 373.145 52.0782L431.656 52.0782C433.831 52.0782 435.594 53.8411 435.594 56.0157L435.594 73.7188 339.125 73.7188C339.021 73.7188 338.928 73.7365 338.818 73.7404L337.156 73.7404C334.271 73.7546 331.658 75.4457 330.462 78.0717L305.694 138.264C305.69 138.275 305.679 138.28 305.669 138.277 305.663 138.275 305.658 138.27 305.656 138.264Z" fill="#002060"/></g></svg>