<svg width="189" height="189" xmlns="http://www.w3.org/2000/svg" xmlns:xlink="http://www.w3.org/1999/xlink" xml:space="preserve" overflow="hidden"><defs><clipPath id="clip0"><rect x="279" y="160" width="189" height="189"/></clipPath></defs><g clip-path="url(#clip0)" transform="translate(-279 -160)"><path d="M335.897 232.844 434.531 232.844 434.531 223C434.531 218.669 430.987 215.125 426.656 215.125L367.594 215.125 345.938 200.753C344.559 199.966 343.181 199.375 341.606 199.375L304.594 199.375C300.263 199.375 296.719 202.919 296.719 207.25L296.719 303.719C296.719 304.112 322.116 242.097 322.116 242.097 324.478 236.584 329.794 232.844 335.897 232.844Z" fill="#FFFFFF"/><path d="M450.281 248.594C450.281 244.459 447.328 241.113 443.194 240.719L335.897 240.719C332.944 240.719 330.384 242.491 329.203 245.05L302.625 309.625 422.719 309.625 449.494 252.137C450.084 250.956 450.281 249.775 450.281 248.594L450.281 248.594Z" fill="#FFFFFF"/></g></svg>