<svg width="649" height="649" xmlns="http://www.w3.org/2000/svg" xmlns:xlink="http://www.w3.org/1999/xlink" xml:space="preserve" overflow="hidden"><defs><clipPath id="clip0"><rect x="-202" y="1874" width="649" height="649"/></clipPath><clipPath id="clip1"><rect x="-127" y="2117" width="498" height="163"/></clipPath><clipPath id="clip2"><rect x="-127" y="2117" width="498" height="163"/></clipPath><clipPath id="clip3"><rect x="-205" y="1770" width="650" height="653"/></clipPath></defs><g clip-path="url(#clip0)" transform="translate(202 -1874)"><g clip-path="url(#clip1)"><g clip-path="url(#clip2)"><g clip-path="url(#clip3)"><path d="M530.823 287.689 462.411 219.277 394.317 287.689 325.905 219.277 257.493 287.689 189.398 219.277 120.986 287.689 88.6823 255.405 189.398 154.986 257.493 223.398 325.905 154.986 394.317 223.398 462.411 154.986 562.837 255.405Z" fill="#EE00D7" transform="matrix(1 0 0 1.00591 -204.071 1770.13)"/><path d="M530.823 492.607 462.411 424.195 394.317 492.607 325.905 424.195 257.493 492.607 189.398 424.195 120.986 492.607 88.6823 460.303 189.398 359.905 257.493 428.317 325.905 359.905 394.317 428.317 462.411 359.905 562.816 460.303 530.823 492.607Z" fill="#EE00D7" transform="matrix(1 0 0 1.00591 -204.071 1770.13)"/></g></g></g><rect x="-202" y="1874" width="649" height="649" fill="#4472C4" fill-opacity="0"/></g></svg>