<svg width="189" height="189" xmlns="http://www.w3.org/2000/svg" xmlns:xlink="http://www.w3.org/1999/xlink" xml:space="preserve" overflow="hidden"><defs><clipPath id="clip0"><rect x="486" y="-18" width="189" height="189"/></clipPath></defs><g clip-path="url(#clip0)" transform="translate(-486 18)"><path d="M656.952 13.7796 643.106-0.115875C640.033-3.1935 635.047-3.19717 631.969-0.124044 631.967-0.121328 631.964-0.118593 631.961-0.115875L513.639 118.206 501.774 155.25 538.696 143.252 538.696 143.252 656.947 24.905C660.016 21.8325 660.019 16.8553 656.952 13.7796ZM618.048 19.3551 637.493 38.8024 633.29 43.0096 613.841 23.5603ZM536.459 139.841 514.557 146.956 510.019 142.416 517.059 120.429C521.046 117.294 528.037 118.673 533.13 123.764 538.223 128.855 539.601 135.856 536.459 139.841ZM535.912 120.98C532.392 117.311 527.602 115.127 522.524 114.877L611.057 26.3441 630.506 45.7875 542.025 134.352C541.766 129.278 539.58 124.495 535.912 120.98ZM654.161 22.1212 640.277 36.0166 620.832 16.5712 634.743 2.65809C636.279 1.119 638.772 1.11674 640.311 2.65298 640.313 2.65475 640.315 2.65632 640.317 2.65809L654.165 16.5535C655.701 18.0923 655.699 20.5847 654.161 22.1212Z" fill="#00B0F0"/></g></svg>