<svg width="189" height="189" xmlns="http://www.w3.org/2000/svg" xmlns:xlink="http://www.w3.org/1999/xlink" xml:space="preserve" overflow="hidden"><defs><clipPath id="clip0"><rect x="507" y="113" width="189" height="189"/></clipPath></defs><g clip-path="url(#clip0)" transform="translate(-507 -113)"><path d="M556.219 252.978C560.156 256.916 560.156 263.019 556.219 266.956L539.484 272.469 536.531 269.516 542.044 252.781C546.178 249.041 552.281 249.041 556.219 252.978ZM633.591 150.209 535.153 248.844 522.75 286.25 560.353 273.847 658.791 175.409" fill="#FFFFFF"/><path d="M678.084 144.894 664.106 130.916C660.956 127.766 656.034 127.766 652.884 130.916L639.103 144.697 664.106 169.7 677.888 155.919C681.234 152.966 681.234 148.044 678.084 144.894Z" fill="#FFFFFF"/></g></svg>