<svg width="189" height="189" xmlns="http://www.w3.org/2000/svg" xmlns:xlink="http://www.w3.org/1999/xlink" xml:space="preserve" overflow="hidden"><defs><clipPath id="clip0"><rect x="-380" y="-18" width="189" height="189"/></clipPath></defs><g clip-path="url(#clip0)" transform="translate(380 18)"><path d="M-336.282 25.6373-237.774 58.4859C-237.763 58.4893-237.758 58.5005-237.761 58.5107-237.763 58.5166-237.768 58.5214-237.774 58.5233L-271.481 70.6646-277.318 72.7594-272.93 77.1458-235.945 114.129-247.917 126.089-284.864 89.1315-289.241 84.7451-291.343 90.5805-303.498 124.301C-303.502 124.311-303.513 124.317-303.523 124.314-303.529 124.312-303.534 124.307-303.536 124.301L-336.306 25.6669C-336.314 25.6604-336.315 25.6484-336.309 25.6403-336.302 25.6322-336.29 25.6308-336.282 25.6373ZM-337.188 21.375-337.205 21.375C-339.095 21.4181-340.593 22.9837-340.552 24.8735-340.544 25.2245-340.483 25.5724-340.371 25.9051L-306.786 127.008C-306.152 128.802-304.184 129.743-302.39 129.109-301.408 128.762-300.636 127.99-300.289 127.008L-287.648 91.9153-247.917 131.656-230.375 114.135-270.144 74.3659-235.1 61.7442C-233.3 61.1241-232.344 59.162-232.964 57.362-233.309 56.3591-234.097 55.5712-235.1 55.2257L-336.083 21.5522C-336.439 21.4345-336.812 21.3746-337.188 21.375Z" fill="#595959"/></g></svg>