<svg width="189" height="189" xmlns="http://www.w3.org/2000/svg" xmlns:xlink="http://www.w3.org/1999/xlink" xml:space="preserve" overflow="hidden"><defs><clipPath id="clip0"><rect x="-363" y="138" width="189" height="189"/></clipPath></defs><g clip-path="url(#clip0)" transform="translate(363 -138)"><path d="M-213.375 270.103-253.144 230.354-218.1 217.734C-216.301 217.116-215.343 215.156-215.962 213.356-216.307 212.352-217.096 211.563-218.1 211.218L-319.077 177.552C-319.439 177.433-319.818 177.373-320.199 177.375L-320.199 177.375C-322.091 177.416-323.591 178.982-323.551 180.873-323.543 181.224-323.482 181.571-323.369 181.903L-289.782 282.979C-289.148 284.773-287.18 285.713-285.386 285.079-284.404 284.732-283.632 283.96-283.285 282.979L-270.646 247.896-230.917 287.625Z" fill="#FFFFFF"/></g></svg>