<svg width="189" height="189" xmlns="http://www.w3.org/2000/svg" xmlns:xlink="http://www.w3.org/1999/xlink" xml:space="preserve" overflow="hidden"><defs><clipPath id="clip0"><rect x="122" y="65" width="189" height="189"/></clipPath></defs><g clip-path="url(#clip0)" transform="translate(-122 -65)"><path d="M216.459 84.6875C175.164 84.6875 141.688 118.164 141.688 159.459 141.688 200.754 175.164 234.23 216.459 234.23 257.754 234.23 291.23 200.754 291.23 159.459 291.23 159.457 291.23 159.455 291.23 159.453 291.244 118.175 257.793 84.7017 216.516 84.6875 216.497 84.6875 216.478 84.6875 216.459 84.6875ZM234.571 163.03C223.677 173.904 212.718 184.875 201.693 195.942 192.324 186.528 182.933 177.137 173.52 167.769L182.933 158.356 201.693 177.116C210.8 167.878 219.857 158.704 228.862 149.595 237.861 140.488 242.84 135.599 252.174 126.579 252.436 126.317 252.717 126.057 253.022 125.791 253.318 125.54 253.582 125.255 253.81 124.941L263.354 134.353C252.268 145.378 245.464 152.151 234.569 163.024Z" fill="#FFFFFF"/></g></svg>