<svg width="189" height="189" xmlns="http://www.w3.org/2000/svg" xmlns:xlink="http://www.w3.org/1999/xlink" xml:space="preserve" overflow="hidden"><defs><clipPath id="clip0"><rect x="349" y="5" width="189" height="189"/></clipPath></defs><g clip-path="url(#clip0)" transform="translate(-349 -5)"><path d="M415.938 52.25 427.75 52.25 427.75 81.7812 415.938 81.7812Z" fill="#FFFFFF"/><path d="M478.938 89.6562 408.062 89.6562 408.062 44.375 478.938 44.375 478.938 89.6562ZM443.5 140.844C432.672 140.844 423.812 131.984 423.812 121.156 423.812 110.328 432.672 101.469 443.5 101.469 454.328 101.469 463.188 110.328 463.188 121.156 463.188 131.984 454.328 140.844 443.5 140.844ZM502.562 32.5625 478.938 32.5625 408.062 32.5625 396.25 32.5625 376.562 52.25 376.562 158.562C376.562 162.894 380.106 166.438 384.438 166.438L502.562 166.438C506.894 166.438 510.438 162.894 510.438 158.562L510.438 40.4375C510.438 36.1063 506.894 32.5625 502.562 32.5625Z" fill="#FFFFFF"/><path d="M437.594 115.25 449.406 115.25 449.406 127.062 437.594 127.062Z" fill="#FFFFFF"/></g></svg>