<svg width="189" height="189" xmlns="http://www.w3.org/2000/svg" xmlns:xlink="http://www.w3.org/1999/xlink" xml:space="preserve" overflow="hidden"><defs><clipPath id="clip0"><rect x="-189" y="131" width="189" height="189"/></clipPath></defs><g clip-path="url(#clip0)" transform="translate(189 -131)"><path d="M-81.7582 228.179C-84.3682 244.391-90.7706 259.757-100.444 273.026L-99.9436 273.526C-103.011 273.876-105.944 274.262-108.506 274.634-107.75 271.421-108.219 268.042-109.821 265.157-111.398 262.789-114.076 261.392-116.92 261.451L-116.999 261.451C-122.368 261.493-128.132 264.353-132.981 267.625-133.113 267.324-133.259 267.025-133.42 266.732-134.991 263.907-137.813 261.999-141.02 261.593-143.478 261.305-145.968 261.722-148.198 262.796-147.187 258.525-147.276 254.067-148.456 249.84-150.084 244.818-154.047 240.898-159.087 239.325-162.837 238.102-166.822 237.773-170.722 238.362-174.36 238.889-177.919 239.859-181.322 241.25-184.386 242.368-185.964 245.759-184.845 248.823-183.727 251.887-180.336 253.465-177.272 252.346-177.177 252.312-177.083 252.275-176.991 252.236-174.488 251.205-171.869 250.481-169.192 250.08-167.107 249.735-164.97 249.878-162.949 250.497-161.407 250.86-160.168 252.007-159.687 253.517-157.411 260.465-164.993 276.254-171.484 286.002-171.773 286.419-172.043 286.821-172.297 287.197-174.123 289.9-173.412 293.571-170.709 295.397-168.022 297.213-164.374 296.522-162.536 293.849-162.39 293.638-162.164 293.308-161.869 292.865-155.653 283.808-147.585 275.294-143.829 273.589-144.059 275.294-144.517 276.96-145.189 278.544-146.507 281.528-145.157 285.015-142.174 286.333-139.93 287.324-137.307 286.826-135.584 285.08-131.21 280.623-126.118 276.934-120.521 274.166-121.001 276.033-121.62 277.862-122.374 279.637-123.674 282.628-122.302 286.108-119.31 287.407-118.23 287.877-117.035 288.013-115.877 287.797-115.757 287.774-103.729 285.561-92.0942 284.62-91.2262 284.544-90.3859 284.274-89.6352 283.832L-89.2415 284.226C-75.9725 274.552-60.6058 268.15-44.3934 265.54-44.3934 265.54-41.8655 251.824-22.1898 232.113L-48.3446 205.96C-68.0597 225.636-81.7582 228.179-81.7582 228.179ZM-61.2025 252.472C-62.7287 253.995-65.0276 254.438-67.0103 253.59L-92.9978 279.578-95.7797 276.79-69.7922 250.802C-70.9364 248.119-69.6886 245.016-67.005 243.872-64.3216 242.728-61.2187 243.975-60.0744 246.659-59.2281 248.643-59.674 250.943-61.2006 252.468Z" fill="#FFFFFF"/><path d="M-46.3877 196.591-12.7536 230.225C-12.7536 230.225-9.42441 227.175-3.9749 222.169L-3.9749 150.688C-27.3952 175.887-46.3877 196.591-46.3877 196.591Z" fill="#FFFFFF"/></g></svg>