<svg width="189" height="189" xmlns="http://www.w3.org/2000/svg" xmlns:xlink="http://www.w3.org/1999/xlink" xml:space="preserve" overflow="hidden"><defs><clipPath id="clip0"><rect x="51" y="132" width="189" height="189"/></clipPath></defs><g clip-path="url(#clip0)" transform="translate(-51 -132)"><path d="M77.4758 222.297C72.3979 230.671 68.4016 239.655 65.5825 249.034 72.3499 256.714 80.117 263.452 88.676 269.066 87.1498 261.705 87.7479 254.062 90.4006 247.028 90.9144 245.782 91.4913 244.577 92.1134 243.404 90.601 242.353 89.1605 241.203 87.8018 239.96 82.8369 235.106 79.2701 229.005 77.4758 222.297Z" fill="#FFFFFF"/><path d="M188.352 196.969C189.685 197.211 191.016 197.514 192.339 197.892 199.518 200.184 205.897 204.474 210.727 210.26 211.801 200.079 211.504 189.799 209.845 179.697 200.513 175.82 190.712 173.189 180.693 171.871 185.057 177.683 187.719 184.593 188.383 191.83 188.479 193.542 188.469 195.258 188.352 196.969Z" fill="#FFFFFF"/><path d="M213.347 222.011C211.482 228.94 207.745 235.221 202.545 240.165 201.262 241.298 199.91 242.35 198.497 243.315 199.135 244.512 199.723 245.745 200.249 247.018 202.926 254.135 203.511 261.869 201.932 269.307 210.649 263.65 218.55 256.827 225.417 249.028 222.57 239.542 218.513 230.462 213.347 222.011Z" fill="#FFFFFF"/><path d="M148.782 179.608C154.2 185.676 157.654 193.242 158.691 201.31 158.769 201.9 158.824 202.481 158.876 203.068 159.358 202.753 159.811 202.404 160.309 202.107 167.276 197.911 175.35 195.92 183.469 196.398 183.554 194.978 183.554 193.554 183.469 192.133 182.999 184.595 179.201 177.565 174.147 171.422 173.765 171.422 173.383 171.395 173.003 171.395 165.639 171.083 158.355 173.022 152.121 176.954 150.957 177.773 149.842 178.66 148.782 179.608Z" fill="#FFFFFF"/><path d="M115.291 223.929C114.701 223.378 114.142 222.811 113.589 222.222 108.258 216.574 104.673 209.506 103.264 201.869 102.178 202.076 101.099 202.314 100.012 202.623 92.4678 204.777 86.2308 210.321 81.2085 216.896 82.4591 224.244 85.9333 231.032 91.1625 236.344 92.2827 237.37 93.4663 238.325 94.7063 239.202 99.3706 232.514 105.955 227.398 113.589 224.531 114.154 224.311 114.723 224.118 115.291 223.929Z" fill="#FFFFFF"/><path d="M163.201 282.216C163.792 281.194 164.3 280.15 164.776 279.093 157.43 276.103 151.13 271.013 146.664 264.459 146.27 263.877 145.886 263.286 145.514 262.688 145.146 263.289 144.763 263.879 144.364 264.459 139.838 271.108 133.425 276.251 125.952 279.225 126.411 280.239 126.903 281.243 127.46 282.224 131.264 288.917 137.932 293.632 145.327 296.946 152.719 293.617 159.399 288.909 163.201 282.216Z" fill="#FFFFFF"/><path d="M116.258 276.807C117.378 276.634 118.477 276.398 119.562 276.126 117.252 268.416 117.303 260.192 119.709 252.511 119.92 251.826 120.202 251.174 120.446 250.505 119.729 250.592 119.007 250.662 118.28 250.712 117.315 250.779 116.349 250.81 115.392 250.81 108.737 250.816 102.184 249.169 96.3226 246.016 95.8344 246.957 95.3658 247.912 94.9445 248.906 91.9717 256.106 92.4107 264.367 94.407 272.319 101.388 275.829 108.928 277.941 116.258 276.807Z" fill="#FFFFFF"/><path d="M123.166 284.639C122.459 283.39 121.816 282.104 121.241 280.788 119.846 281.155 118.433 281.45 117.008 281.672 115.405 281.917 113.786 282.04 112.165 282.038 106.712 281.94 101.33 280.781 96.3206 278.625 99.7386 287.866 104.326 296.631 109.972 304.707 119.874 304.182 129.667 302.383 139.109 299.354 132.523 296.038 126.999 290.94 123.166 284.639Z" fill="#FFFFFF"/><path d="M173.992 281.672C172.459 281.43 170.941 281.101 169.446 280.688 168.86 282.039 168.203 283.358 167.477 284.639 163.645 290.942 158.119 296.043 151.53 299.359 160.972 302.389 170.766 304.187 180.668 304.709 186.274 296.678 190.838 287.969 194.252 278.79 189.365 280.844 184.13 281.947 178.829 282.038 177.21 282.041 175.592 281.918 173.992 281.672Z" fill="#FFFFFF"/><path d="M195.9 239.147C197.066 238.333 198.184 237.451 199.247 236.505 204.783 231.532 207.925 224.328 209.622 216.682 204.633 210.201 198.444 204.753 190.98 202.623 189.901 202.316 188.814 202.078 187.728 201.871 186.318 209.507 182.733 216.574 177.404 222.222 176.813 222.842 176.222 223.439 175.602 224.019 176.087 224.183 176.571 224.344 177.051 224.525 184.666 227.386 191.236 232.483 195.9 239.147Z" fill="#FFFFFF"/><path d="M194.278 245.902C188.482 248.974 182.022 250.579 175.462 250.576 174.281 250.576 173.095 250.525 171.905 250.424 171.302 250.373 170.704 250.3 170.105 250.227 170.391 250.987 170.696 251.733 170.948 252.515 173.342 260.173 173.397 268.37 171.106 276.059 172.304 276.37 173.518 276.621 174.742 276.809 176.09 277.016 177.453 277.119 178.817 277.117 184.874 276.933 190.81 275.368 196.17 272.541 198.217 264.517 198.698 256.169 195.699 248.916 195.272 247.873 194.79 246.879 194.278 245.902Z" fill="#FFFFFF"/><path d="M107.537 196.402C115.656 195.926 123.729 197.917 130.697 202.111 131.15 202.381 131.559 202.702 131.998 202.983 132.073 202.117 132.166 201.251 132.294 200.385 133.415 192.7 136.732 185.504 141.846 179.66 141.009 178.933 140.147 178.232 139.235 177.577 132.935 173.048 124.826 171.574 116.65 171.684 111.699 177.766 107.987 184.707 107.531 192.141 107.449 193.56 107.451 194.983 107.537 196.402Z" fill="#FFFFFF"/><path d="M145.303 176.128C146.572 174.975 147.91 173.903 149.311 172.917 155.392 168.947 162.456 166.746 169.716 166.557 162.469 159.525 154.327 153.479 145.5 148.575 136.558 153.54 128.321 159.681 121.009 166.833 128.539 167.032 135.857 169.371 142.108 173.576 143.226 174.379 144.289 175.234 145.303 176.128Z" fill="#FFFFFF"/><path d="M98.6615 197.89C99.9845 197.512 101.315 197.209 102.648 196.967 102.531 195.257 102.521 193.542 102.617 191.83 103.268 184.676 105.879 177.839 110.163 172.072 100.326 173.268 90.6843 175.724 81.4743 179.38 79.6233 189.607 79.1789 200.04 80.1533 210.388 85.0033 204.541 91.4257 200.204 98.6615 197.89Z" fill="#FFFFFF"/><path d="M145.543 250.125C147.315 250.118 149.077 249.864 150.778 249.371 150.202 252.133 149.349 254.83 148.233 257.421 148.963 258.89 149.791 260.31 150.709 261.67 154.598 267.372 160.067 271.814 166.446 274.451 168.396 267.755 168.328 260.633 166.249 253.976 165.71 252.291 165.052 250.646 164.28 249.054 161.762 248.353 159.315 247.421 156.97 246.268 159.731 244.195 161.88 241.413 163.189 238.218 164.885 240.264 166.382 242.465 167.662 244.794 169.196 245.134 170.75 245.377 172.314 245.52 178.997 246.098 185.706 244.771 191.665 241.693 187.579 235.975 181.886 231.6 175.309 229.124 173.893 228.598 172.446 228.156 170.978 227.803 168.957 229.222 166.816 230.46 164.579 231.505 164.579 231.339 164.605 231.178 164.605 231.01 164.608 227.794 163.795 224.629 162.242 221.812 164.77 221.814 167.292 222.043 169.779 222.498 171.212 221.382 172.561 220.163 173.817 218.849 178.421 213.967 181.545 207.877 182.826 201.288 182.253 201.259 181.68 201.227 181.107 201.227 174.66 201.237 168.338 203.001 162.817 206.33 161.48 207.141 160.195 208.035 158.97 209.008 158.832 211.524 158.469 214.024 157.883 216.475 155.309 214.278 152.196 212.807 148.865 212.213 150.435 210.217 152.181 208.367 154.084 206.685 154.087 205.105 153.992 203.527 153.796 201.96 152.897 194.989 149.946 188.443 145.319 183.154 140.954 188.246 138.122 194.472 137.152 201.109 136.899 202.931 136.78 204.769 136.798 206.608 138.737 208.313 140.516 210.192 142.114 212.221 138.764 212.821 135.637 214.308 133.057 216.528 132.442 214.033 132.057 211.487 131.906 208.921 130.713 207.984 129.464 207.121 128.165 206.338 122.146 202.713 115.185 200.96 108.167 201.3 109.45 207.883 112.573 213.966 117.174 218.845 118.408 220.138 119.735 221.34 121.143 222.442 123.654 222.001 126.2 221.788 128.75 221.807 127.196 224.624 126.383 227.789 126.387 231.006 126.387 231.17 126.407 231.329 126.411 231.493 124.148 230.439 121.982 229.187 119.94 227.752 118.377 228.112 116.839 228.572 115.335 229.13 108.714 231.62 102.989 236.034 98.8977 241.805 104.747 244.886 111.343 246.268 117.938 245.794 119.582 245.668 121.216 245.433 122.83 245.091 124.204 242.545 125.837 240.148 127.702 237.936 128.349 239.588 129.222 241.142 130.295 242.553L130.39 242.679C131.469 244.07 132.732 245.306 134.146 246.355 131.608 247.631 128.948 248.648 126.206 249.391 125.508 250.875 124.908 252.404 124.411 253.968 122.311 260.671 122.251 267.847 124.238 274.585 130.75 271.965 136.336 267.469 140.289 261.668 141.207 260.308 142.035 258.888 142.765 257.419 141.649 254.828 140.796 252.131 140.22 249.369 141.922 249.863 143.684 250.118 145.457 250.125Z" fill="#FFFFFF"/></g></svg>