<svg width="189" height="189" xmlns="http://www.w3.org/2000/svg" xmlns:xlink="http://www.w3.org/1999/xlink" xml:space="preserve" overflow="hidden"><defs><clipPath id="clip0"><rect x="46" y="-43" width="189" height="189"/></clipPath></defs><g clip-path="url(#clip0)" transform="translate(-46 43)"><path d="M206.114 41.1274C208.037 29.1293 207.89 16.8906 205.682 4.94182L205.485 3.95548 204.57 3.5383C193.546-1.31211 181.78-4.2611 169.771-5.18327 161.599-14.0178 151.991-21.4064 141.355-27.0364L140.461-27.4922 139.565-27.0346C128.833-21.3536 119.151-13.879 110.94-4.93422 99.1614-4.12506 87.5973-1.37925 76.7125 3.19258L75.7915 3.59637 75.5781 4.57878C75.3326 5.71495 71.4898 24.0279 74.6697 41.3198 68.0663 51.0082 63.0912 61.7109 59.9409 73.0045L59.685 73.9772 60.3232 74.7539C61.0538 75.6442 72.8295 89.7859 88.1679 98.0568 91.6606 109.32 96.9847 119.931 103.926 129.464L104.53 130.267 105.535 130.25C117.431 129.855 129.178 127.479 140.293 123.222 151.407 127.479 163.154 129.855 175.049 130.25L176.055 130.267 176.658 129.464C183.554 119.99 188.855 109.454 192.355 98.2722 207.887 90.033 219.861 75.6512 220.598 74.7539L221.236 73.9772 220.98 73.0045C217.811 61.6338 212.788 50.8637 206.114 41.1274ZM202 6.71488C203.667 16.6913 203.928 26.852 202.775 36.9007 198.14 31.1634 191.932 26.9032 184.911 24.6431 183.565 24.2623 182.199 23.954 180.819 23.7194 180.954 21.9977 180.974 20.2689 180.88 18.5445 180.212 11.4546 177.536 4.70222 173.166-0.919937 183.082 0.290646 192.784 2.85967 202 6.71488ZM138.282 80.8889C137.559 82.3696 136.733 83.7987 135.813 85.1656 131.934 90.8659 126.416 95.2551 119.99 97.753 117.956 91.1593 117.973 84.1037 120.036 77.5194 120.536 75.9489 121.145 74.4149 121.856 72.9283 123.32 72.5337 124.759 72.0522 126.166 71.4864 129.147 74.1292 132.804 75.893 136.728 76.5819 137.159 78.0474 137.678 79.4858 138.282 80.8889ZM131.823 32.7498C131.797 30.9228 131.91 29.0964 132.162 27.2867 133.114 20.7558 135.942 14.6418 140.302 9.6871 144.912 14.8297 147.85 21.2515 148.728 28.1018 148.923 29.6703 149.013 31.25 148.999 32.8305 148.315 33.4275 147.664 34.0561 147.029 34.7022 142.755 33.3314 138.159 33.332 133.885 34.7042 133.222 34.0293 132.54 33.3717 131.823 32.7498ZM140.461 72.9889C130.691 72.9891 122.772 65.0698 122.772 55.3007 122.772 45.5315 130.691 37.6122 140.46 37.612 150.229 37.6118 158.148 45.531 158.149 55.2997 158.149 65.0688 150.23 72.9885 140.461 72.9889 140.461 72.9889 140.461 72.9889 140.461 72.9889ZM152.637 37.4431C152.751 36.5355 152.841 35.6262 152.886 34.7101 154.113 33.721 155.405 32.814 156.752 31.9954 162.669 28.4322 169.528 26.7506 176.422 27.1735 175.243 33.6679 172.204 39.6804 167.674 44.4808 166.418 45.7948 165.064 47.011 163.623 48.1193 162.647 47.9338 161.666 47.8043 160.681 47.7011 159.114 43.5386 156.305 39.958 152.637 37.4431ZM120.254 47.6609C119.241 47.758 118.231 47.8801 117.227 48.0637 115.812 46.9705 114.482 45.7727 113.247 44.4806 108.717 39.6796 105.678 33.6665 104.499 27.1714 111.392 26.7481 118.251 28.4302 124.166 31.9948 125.468 32.7841 126.717 33.6554 127.907 34.6038 127.957 35.5775 128.065 36.5436 128.198 37.5069 124.583 40.0092 121.812 43.55 120.254 47.6609ZM110.378 47.176C111.062 47.9045 111.796 48.5662 112.525 49.2352 111.76 49.4736 110.99 49.683 110.236 49.9697 102.919 52.7118 96.626 57.6447 92.216 64.0951 90.9153 63.1965 89.6773 62.2104 88.5104 61.1437 83.447 55.9911 80.0952 49.4027 78.9118 42.2762 83.7449 35.9067 89.7773 30.5177 97.0891 28.4306 98.2376 28.1018 99.4021 27.8321 100.578 27.6222 101.856 34.9603 105.264 41.7604 110.378 47.176ZM111.634 53.6515C113.139 53.0921 114.681 52.635 116.249 52.2834 117.105 52.8958 117.996 53.4534 118.9 53.9859 118.874 54.4234 118.834 54.8569 118.834 55.3001 118.831 58.9389 119.752 62.5187 121.511 65.7041 120.651 66.9261 119.864 68.198 119.154 69.5129 117.543 69.8641 115.91 70.1037 114.266 70.2301 107.777 70.6874 101.292 69.2798 95.5767 66.1733 99.5278 60.4602 105.13 56.0911 111.634 53.6515ZM144.189 76.5819C148.173 75.8834 151.879 74.0766 154.883 71.3688 156.09 71.8435 157.321 72.2553 158.57 72.6032 159.351 74.1906 160.013 75.8339 160.551 77.5192 162.599 84.0598 162.627 91.066 160.632 97.6229 154.333 95.1084 148.927 90.7707 145.108 85.1656 144.187 83.7985 143.362 82.3696 142.638 80.8887 143.241 79.4856 143.759 78.0474 144.189 76.5819ZM161.29 69.2217C160.671 68.0966 159.994 67.0051 159.259 65.9522 161.112 62.7079 162.087 59.036 162.086 55.2997 162.086 54.8575 162.047 54.4248 162.02 53.9893 162.899 53.4741 163.763 52.9348 164.596 52.3426 166.073 52.6862 167.528 53.1232 168.951 53.6511 175.418 56.0787 180.994 60.4145 184.941 66.0835 179.119 69.1937 172.517 70.5414 165.942 69.962 164.377 69.8178 162.823 69.5706 161.29 69.2217ZM170.346 49.9697C169.676 49.7149 168.99 49.5332 168.312 49.3169 169.072 48.6239 169.834 47.9326 170.544 47.176 175.657 41.7602 179.064 34.9605 180.342 27.6232 181.518 27.8331 182.683 28.1026 183.831 28.4304 191.068 30.4962 197.053 35.7949 201.861 42.0789 200.24 49.4791 197.213 56.4678 191.843 61.2939 190.729 62.2811 189.553 63.1958 188.323 64.0327 183.914 57.6126 177.639 52.7031 170.346 49.9697ZM166.619-1.27943C167.041-1.27943 167.465-1.25738 167.887-1.24872 172.793 4.67879 176.494 11.4838 176.951 18.7906 177.033 20.2764 177.021 21.766 176.913 23.2502 169.145 22.724 161.403 24.5968 154.734 28.6152 154.069 29.0121 153.453 29.4689 152.817 29.9014 152.761 29.1305 152.736 28.3605 152.635 27.5885 151.648 19.8646 148.311 12.6304 143.076 6.86568 144.173 5.86103 145.332 4.92725 146.548 4.07006 152.539 0.28809 159.54-1.57789 166.619-1.27943ZM140.461-23.0471C149.198-18.2191 157.23-12.2127 164.331-5.19665 157.217-5.1307 150.269-3.03831 144.302 0.8354 142.891 1.8306 141.548 2.91873 140.282 4.0925 139.242 3.15636 138.152 2.27672 137.018 1.45753 130.893-2.64023 123.707-4.86315 116.338-4.93895 123.496-12.0688 131.616-18.1638 140.461-23.0471ZM112.849-1.01995C120.749-1.14477 128.609 0.264462 134.719 4.65576 135.689 5.35309 136.622 6.09925 137.516 6.89167 132.556 12.4479 129.34 19.3397 128.266 26.7099 128.113 27.7443 128.043 28.7787 127.971 29.812 127.377 29.4122 126.806 28.9852 126.187 28.6152 119.519 24.5958 111.777 22.7224 104.008 23.2484 103.901 21.7646 103.888 20.2752 103.97 18.7898 104.421 11.5771 108.037 4.85362 112.849-1.01995ZM79.2303 6.40913C88.3289 2.76911 97.8762 0.370575 107.615-0.721882 103.322 4.85657 100.696 11.5361 100.041 18.5445 99.9461 20.2685 99.9664 21.9971 100.101 23.7184 98.7215 23.9534 97.3556 24.2623 96.009 24.6437 88.9331 26.927 82.6825 31.2362 78.0316 37.0372 76.9728 26.8227 77.3766 16.5096 79.2303 6.40913ZM86.9106 92.7524C78.3989 87.2777 70.696 80.6375 64.0269 73.0255 66.7963 63.7342 70.785 54.851 75.8888 46.6078 77.5301 53.2225 80.9715 59.2531 85.831 64.0313 87.1918 65.2763 88.6392 66.4231 90.1622 67.4632 89.5084 68.6663 88.9184 69.9029 88.3943 71.168 85.8109 78.0653 85.2955 85.5665 86.9106 92.7524ZM92.0333 72.6712C92.4773 71.5954 92.974 70.5543 93.513 69.5422 99.1175 72.6357 105.415 74.256 111.817 74.2515 112.719 74.2515 113.625 74.2202 114.536 74.1574 115.435 74.0957 116.316 73.9546 117.202 73.8343 116.881 74.6679 116.542 75.4926 116.276 76.3529 113.967 83.7182 113.957 91.6121 116.247 98.9831 115.079 99.2896 113.896 99.5357 112.703 99.7204 105.598 100.827 98.2996 98.7658 91.5651 95.3571 89.6047 87.6634 89.1511 79.6508 92.0329 72.6717ZM106.48 126.274C100.886 118.297 96.3809 109.609 93.0829 100.441 98.013 102.657 103.34 103.853 108.744 103.958 110.27 103.959 111.794 103.843 113.303 103.612 114.754 103.382 116.191 103.071 117.607 102.679 118.178 104.027 118.823 105.343 119.541 106.619 123.307 112.781 128.767 117.729 135.269 120.871 125.958 123.954 116.275 125.771 106.48 126.274ZM140.293 118.891C133.127 115.706 126.648 111.161 122.965 104.674 122.371 103.628 121.832 102.552 121.349 101.451 128.544 98.672 134.722 93.7679 139.061 87.3913 139.57 86.6481 140.006 85.8704 140.461 85.1005 140.916 85.8704 141.352 86.6481 141.862 87.3913 146.142 93.6771 152.212 98.5323 159.285 101.327 158.791 102.472 158.236 103.589 157.622 104.674 153.939 111.161 147.459 115.706 140.292 118.891ZM174.106 126.274C164.311 125.771 154.628 123.955 145.317 120.872 151.82 117.73 157.28 112.782 161.045 106.619 161.779 105.313 162.437 103.966 163.016 102.584 164.528 103.019 166.065 103.362 167.619 103.612 169.127 103.843 170.651 103.959 172.177 103.958 177.439 103.86 182.63 102.72 187.449 100.604 184.153 109.712 179.666 118.343 174.105 126.274ZM188.97 95.5478C182.648 99.043 175.4 100.501 168.218 99.7216 166.92 99.5157 165.633 99.2371 164.366 98.887 166.628 91.5436 166.609 83.6865 164.311 76.3541 164.016 75.4024 163.648 74.4873 163.286 73.5673 164.06 73.6788 164.825 73.8211 165.609 73.8874 166.732 73.9816 167.849 74.029 168.961 74.0298 175.27 74.0318 181.48 72.454 187.024 69.4404 187.588 70.4912 188.099 71.5698 188.554 72.6723 191.459 79.7094 190.971 87.7959 188.971 95.5478ZM193.626 92.9871C195.296 85.7307 194.798 78.1435 192.193 71.1678 191.657 69.8769 191.052 68.6153 190.381 67.389 191.814 66.4257 193.181 65.3681 194.473 64.2234 199.553 59.3687 203.157 53.1766 204.87 46.3616 210.053 54.6724 214.097 63.6415 216.895 73.0283 210.128 80.7552 202.293 87.476 193.626 92.9871Z" fill="#7030A0"/></g></svg>