<svg width="649" height="649" xmlns="http://www.w3.org/2000/svg" xmlns:xlink="http://www.w3.org/1999/xlink" xml:space="preserve" overflow="hidden"><defs><clipPath id="clip0"><rect x="-1012" y="1463" width="649" height="649"/></clipPath><clipPath id="clip1"><rect x="-912" y="1614" width="445" height="111"/></clipPath><clipPath id="clip2"><rect x="-912" y="1614" width="445" height="111"/></clipPath><clipPath id="clip3"><rect x="-965" y="1071" width="697" height="654"/></clipPath><clipPath id="clip4"><rect x="-935" y="1787" width="499" height="162"/></clipPath><clipPath id="clip5"><rect x="-935" y="1787" width="499" height="162"/></clipPath><clipPath id="clip6"><rect x="-1014" y="1442" width="651" height="649"/></clipPath></defs><g clip-path="url(#clip0)" transform="translate(1012 -1463)"><rect x="-1012" y="1463" width="649" height="649" fill="#4472C4" fill-opacity="0"/><g clip-path="url(#clip1)"><g clip-path="url(#clip2)"><g clip-path="url(#clip3)"><path d="M571.692 490.43C558.674 485.236 544.862 482.312 530.857 481.786 516.851 482.312 503.039 485.236 490.021 490.43 481.351 494.014 472.158 496.175 462.798 496.827L462.798 496.827C453.438 496.179 444.244 494.018 435.575 490.43 422.557 485.236 408.745 482.312 394.739 481.786 380.734 482.312 366.922 485.236 353.904 490.43 345.234 494.014 336.041 496.175 326.681 496.827 317.321 496.175 308.128 494.014 299.458 490.43 286.44 485.236 272.628 482.312 258.622 481.786 244.617 482.312 230.805 485.236 217.787 490.43 209.117 494.014 199.924 496.175 190.564 496.827 181.204 496.175 172.011 494.014 163.34 490.43 150.323 485.236 136.511 482.312 122.505 481.786 108.5 482.319 94.6898 485.242 81.6702 490.43 72.9975 494.008 63.8057 496.168 54.4468 496.827L54.4468 537.662C68.4519 537.134 82.2637 534.21 95.2819 529.019 103.951 525.418 113.143 523.235 122.505 522.553 131.869 523.228 141.062 525.411 149.729 529.019 162.746 534.213 176.558 537.137 190.564 537.662 204.57 537.137 218.381 534.213 231.399 529.019 240.066 525.411 249.259 523.228 258.622 522.553 267.982 523.206 277.175 525.366 285.846 528.951 298.859 534.172 312.671 537.118 326.681 537.662 340.687 537.137 354.498 534.213 367.516 529.019 376.183 525.411 385.376 523.228 394.739 522.553 404.103 523.228 413.296 525.411 421.963 529.019 434.98 534.213 448.792 537.137 462.798 537.662 476.804 537.137 490.616 534.213 503.633 529.019 512.3 525.411 521.493 523.228 530.857 522.553 540.217 523.206 549.409 525.366 558.08 528.951 571.093 534.172 584.905 537.118 598.915 537.662L598.915 496.827C589.555 496.175 580.362 494.014 571.692 490.43Z" fill="#FFFFFF" transform="matrix(1.06536 0 0 1 -964.511 1071.64)"/><path d="M571.692 578.906C558.674 573.712 544.862 570.788 530.857 570.262 516.851 570.788 503.039 573.712 490.021 578.906 481.351 582.49 472.158 584.651 462.798 585.303L462.798 585.303C453.438 584.655 444.244 582.494 435.575 578.906 422.557 573.712 408.745 570.788 394.739 570.262 380.734 570.788 366.922 573.712 353.904 578.906 345.234 582.49 336.041 584.651 326.681 585.303 317.321 584.651 308.128 582.49 299.458 578.906 286.44 573.712 272.628 570.788 258.622 570.262 244.617 570.788 230.805 573.712 217.787 578.906 209.117 582.49 199.924 584.651 190.564 585.303 181.204 584.651 172.011 582.49 163.34 578.906 150.323 573.712 136.511 570.788 122.505 570.262 108.5 570.795 94.6898 573.718 81.6702 578.906 72.9975 582.484 63.8057 584.644 54.4468 585.303L54.4468 626.138C68.4519 625.61 82.2637 622.686 95.2819 617.495 103.951 613.894 113.143 611.711 122.505 611.029 131.869 611.704 141.062 613.887 149.729 617.495 162.746 622.689 176.558 625.613 190.564 626.138 204.57 625.613 218.381 622.689 231.399 617.495 240.066 613.887 249.259 611.704 258.622 611.029 267.982 611.682 277.175 613.842 285.846 617.427 298.859 622.648 312.671 625.594 326.681 626.138 340.687 625.613 354.498 622.689 367.516 617.495 376.183 613.887 385.376 611.704 394.739 611.029 404.103 611.704 413.296 613.887 421.963 617.495 434.98 622.689 448.792 625.613 462.798 626.138 476.804 625.613 490.616 622.689 503.633 617.495 512.3 613.887 521.493 611.704 530.857 611.029 540.217 611.682 549.409 613.842 558.08 617.427 571.093 622.648 584.905 625.594 598.915 626.138L598.915 585.303C589.555 584.651 580.362 582.49 571.692 578.906Z" fill="#FFFFFF" transform="matrix(1.06536 0 0 1 -964.511 1071.64)"/><path d="M313.069 47.641 340.293 47.641 340.293 122.505 313.069 122.505Z" fill="#FFFFFF" transform="matrix(1.06536 0 0 1 -964.511 1071.64)"/><path d="M313.069 363.739 340.293 363.739 340.293 438.603 313.069 438.603Z" fill="#FFFFFF" transform="matrix(1.06536 0 0 1 -964.511 1071.64)"/><path d="M427.081 241.608C427.081 297.057 382.13 342.008 326.681 342.008 271.232 342.008 226.281 297.057 226.281 241.608 226.281 186.158 271.232 141.208 326.681 141.208 382.13 141.208 427.081 186.158 427.081 241.608Z" fill="#FFFFFF" transform="matrix(1.06536 0 0 1 -964.511 1071.64)"/><path d="M447.301 227.996 522.165 227.996 522.165 255.219 447.301 255.219Z" fill="#FFFFFF" transform="matrix(1.06536 0 0 1 -964.511 1071.64)"/><path d="M131.196 227.996 206.061 227.996 206.061 255.219 131.196 255.219Z" fill="#FFFFFF" transform="matrix(1.06536 0 0 1 -964.511 1071.64)"/><path d="M413.491 121.421 490.686 121.421 490.686 149.492 413.491 149.492Z" fill="#FFFFFF" transform="matrix(0.730581 -0.685759 0.730581 0.685759 -926.663 1420.14)"/><path d="M183.015 351.897 260.21 351.897 260.21 379.968 183.015 379.968Z" fill="#FFFFFF" transform="matrix(0.730581 -0.685759 0.730581 0.685759 -1164.79 1327.55)"/><path d="M439.155 326.226 467.226 326.226 467.226 403.421 439.155 403.421Z" fill="#FFFFFF" transform="matrix(0.730581 -0.685759 0.730581 0.685759 -1093.9 1486.05)"/><path d="M208.686 95.7498 236.757 95.7498 236.757 172.945 208.686 172.945Z" fill="#FFFFFF" transform="matrix(0.730581 -0.685759 0.730581 0.685759 -995.269 1262.53)"/></g></g></g><g clip-path="url(#clip4)"><g clip-path="url(#clip5)"><g clip-path="url(#clip6)"><path d="M530.646 287.592 462.257 219.203 394.185 287.592 325.796 219.203 257.407 287.592 189.335 219.203 120.946 287.592 88.6526 255.319 189.335 154.934 257.407 223.323 325.796 154.934 394.185 223.323 462.257 154.934 562.648 255.319Z" fill="#FFFFFF" transform="matrix(1.00235 0 0 1 -1013.23 1442.29)"/><path d="M530.646 492.442 462.257 424.053 394.185 492.442 325.796 424.053 257.407 492.442 189.335 424.053 120.946 492.442 88.6526 460.149 189.335 359.784 257.407 428.173 325.796 359.784 394.185 428.173 462.257 359.784 562.628 460.149 530.646 492.442Z" fill="#FFFFFF" transform="matrix(1.00235 0 0 1 -1013.23 1442.29)"/></g></g></g></g></svg>